<mxfile host="app.diagrams.net" modified="2023-11-17T02:52:15.208Z" agent="Mozilla/5.0 (Windows NT 10.0; Win64; x64) AppleWebKit/537.36 (KHTML, like Gecko) Chrome/118.0.0.0 Safari/537.36" version="21.6.9" etag="H85DVTWldrbaiNQ56EC4" type="github">
  <diagram name="第 1 页" id="lvZfmeSgpjru2O7ojPET">
    <mxGraphModel>
      <root>
        <mxCell id="0" />
        <mxCell id="1" parent="0" />
      </root>
    </mxGraphModel>
  </diagram>
</mxfile>
